<svg xmlns="http://www.w3.org/2000/svg" width="340" height="67" viewBox="0 0 340 67">
  <defs>
    <style>
      .cls-1 {
        fill: #516af0;
      }

      .cls-2 {
        fill: #050505;
      }

      .cls-2, .cls-3 {
        fill-rule: evenodd;
      }

      .cls-3, .cls-4 {
        fill: #fff;
      }
    </style>
  </defs>
  <circle class="cls-1" cx="33.406" cy="33.406" r="33.406"/>
  <path id="manland" class="cls-2" d="M118.548,13.908l-15.8,21.648-15.8-21.648H83.016V51.062h9.774V36.47l9.934,13.975h0.068L112.7,36.47V51.062h9.773V13.908h-3.927Zm34.825,37.153h10.71L146.956,13.794H142.32l-17.1,37.268H135.9l1.872-4.293h13.747ZM140.859,39.621L144.65,30.9l3.768,8.723h-7.559Zm47.978-25.416V32.154L169.975,13.886h-3.151v37.2H176.6V33.09l18.93,18.337h3.106V14.205h-9.8Zm25.029,27.677V14.251h-9.773V51.062h23.863v-9.18h-14.09Zm42.749,9.18h10.71L250.2,13.794h-4.635l-17.1,37.268h10.687l1.873-4.293h13.747ZM244.1,39.621l3.791-8.723,3.768,8.723H244.1ZM292.08,14.205V32.154L273.218,13.886h-3.152v37.2h9.774V33.09l18.931,18.337h3.1V14.205h-9.8Zm27.266,0.046-12.011.023V51.062h12.011c12.514,0,20.164-6.942,20.164-18.36C339.51,21.193,331.86,14.205,319.346,14.251Zm-0.16,27.608h-2.329V23.385H319.1c6.6,0,10.619,3.517,10.619,9.294C329.714,38.388,325.717,41.859,319.186,41.859Z"/>
  <path id="M" class="cls-3" d="M47.4,20.011L33.855,38.566,20.31,20.011H16.944V51.856h8.377V39.349l8.515,11.979h0.059l8.495-11.979V51.856h8.377V20.011H47.4Z"/>
  <ellipse class="cls-4" cx="33.953" cy="17.266" rx="7.234" ry="7.234"/>
</svg>
